HIERARCHY
ROOT Hips
{
	OFFSET 0.000000 0.000000 0.000000 
	CHANNELS 6 Xposition Yposition Zposition Zrotation Xrotation Yrotation
	JOINT Spine
	{
		OFFSET -0.000000 8.061080 0.000000 
		CHANNELS 3 Zrotation Xrotation Yrotation
		JOINT Spine1
		{
			OFFSET -0.000000 20.532677 0.000000 
			CHANNELS 3 Zrotation Xrotation Yrotation
			JOINT Neck
			{
				OFFSET -0.000000 22.498795 0.000000 
				CHANNELS 3 Zrotation Xrotation Yrotation
				JOINT Head
				{
					OFFSET -0.000000 15.237408 1.966117 
					CHANNELS 3 Zrotation Xrotation Yrotation
					End Site
					{
						OFFSET -0.000000 19.661171 0.000000 
					}
				}
			}
			JOINT LeftShoulder
			{
				OFFSET 3.894675 16.042269 -0.398189 
				CHANNELS 3 Zrotation Xrotation Yrotation
				JOINT LeftArm
				{
					OFFSET 19.709621 0.000000 0.000000 
					CHANNELS 3 Zrotation Xrotation Yrotation
					JOINT LeftForeArm
					{
						OFFSET 25.566900 0.000000 0.000000 
						CHANNELS 3 Zrotation Xrotation Yrotation
						JOINT LeftHand
						{
							OFFSET 25.401896 0.000000 0.000000 
							CHANNELS 3 Zrotation Xrotation Yrotation
							End Site
							{
								OFFSET 14.745877 0.000000 0.000000 
							}
						}
					}
				}
			}
			JOINT RightShoulder
			{
				OFFSET -3.930777 16.042269 -0.398189 
				CHANNELS 3 Zrotation Xrotation Yrotation
				JOINT RightArm
				{
					OFFSET -19.709621 0.000000 0.000000 
					CHANNELS 3 Zrotation Xrotation Yrotation
					JOINT RightForeArm
					{
						OFFSET -25.566900 0.000000 0.000000 
						CHANNELS 3 Zrotation Xrotation Yrotation
						JOINT RightHand
						{
							OFFSET -25.401896 0.000000 0.000000 
							CHANNELS 3 Zrotation Xrotation Yrotation
							End Site
							{
								OFFSET -14.745877 0.000000 0.000000 
							}
						}
					}
				}
			}
		}
	}
	JOINT LeftUpLeg
	{
		OFFSET 9.830585 0.000000 0.000000 
		CHANNELS 3 Zrotation Xrotation Yrotation
		JOINT LeftLeg
		{
			OFFSET -0.000000 -46.474842 0.000000 
			CHANNELS 3 Zrotation Xrotation Yrotation
			JOINT LeftFoot
			{
				OFFSET -0.000000 -30.290520 0.000000 
				CHANNELS 3 Zrotation Xrotation Yrotation
				JOINT LeftToeBase
				{
					OFFSET -0.000000 -6.389880 14.745877 
					CHANNELS 3 Zrotation Xrotation Yrotation
					End Site
					{
						OFFSET -0.000000 0.000000 3.932234 
					}
				}
			}
		}
	}
	JOINT RightUpLeg
	{
		OFFSET -9.830585 0.000000 0.000000 
		CHANNELS 3 Zrotation Xrotation Yrotation
		JOINT RightLeg
		{
			OFFSET -0.000000 -46.474842 0.000000 
			CHANNELS 3 Zrotation Xrotation Yrotation
			JOINT RightFoot
			{
				OFFSET -0.000000 -30.290520 0.000000 
				CHANNELS 3 Zrotation Xrotation Yrotation
				JOINT RightToeBase
				{
					OFFSET -0.000000 -6.389880 14.745877 
					CHANNELS 3 Zrotation Xrotation Yrotation
					End Site
					{
						OFFSET -0.000000 0.000000 3.932234 
					}
				}
			}
		}
	}
}
MOTION
Frames: 6
Frame Time: 0.010000
10.914560 84.986763 4.354859 -0.390815 4.207363 -0.740636 1.997706 -4.286636 1.453790 1.209133 -1.653659 0.474738 3.610928 9.090747 4.630770 -5.760652 6.356137 6.606965 3.034791 11.700833 0.624892 -70.641487 25.747276 -19.435673 -13.101897 0.224975 -5.129625 4.658412 -0.063464 7.394300 -7.991882 8.987464 -8.856830 48.914173 54.275631 43.601135 4.960841 -11.456562 11.604970 -11.546532 -12.595397 6.520461 -1.941017 6.263610 2.260283 0.903800 -1.527051 3.265506 3.204033 -5.688056 -0.553547 0.000000 0.000000 0.000000 -12.442944 -22.522665 6.216028 9.460421 14.048200 -11.488933 -3.171986 6.203213 -3.054643 0.000000 0.000000 0.000000 
10.827159 84.965950 4.657850 -0.400061 3.964303 -0.177263 2.012916 -4.246962 1.236247 1.084733 -1.259951 0.396798 3.802752 8.810064 4.553928 -5.778661 6.423625 6.565864 3.152144 11.505440 0.625616 -70.636154 25.585474 -19.320684 -13.202048 0.264564 -5.299363 4.775826 -0.041461 7.372109 -7.885918 8.940616 -8.825994 49.442337 54.082508 43.116581 4.956786 -11.293701 11.685756 -11.605772 -12.441026 6.534917 -1.793025 6.687257 1.956056 0.788253 -1.621757 3.174764 3.399432 -5.675092 -0.656651 0.000000 0.000000 0.000000 -12.431254 -22.129765 6.474549 9.343184 13.517291 -11.732153 -3.148682 6.314364 -2.985186 0.000000 0.000000 0.000000 
10.765772 84.921295 4.887196 -0.308418 3.981060 0.308137 1.729636 -4.235691 1.144320 1.481937 -1.255804 0.374133 3.557393 9.026213 4.474589 -5.688360 5.984857 6.401310 2.893360 11.747639 0.585312 -70.375443 25.676382 -19.669674 -13.133088 0.115748 -5.364310 4.773662 -0.197083 7.310958 -8.083327 8.987793 -8.832363 49.093967 54.381687 43.435345 4.880270 -11.584607 11.552391 -11.646095 -12.725794 6.595636 -1.787136 6.760335 1.692971 0.789299 -1.547819 2.993789 3.323280 -5.821459 -0.697140 0.000000 0.000000 0.000000 -12.601568 -22.214735 6.866279 9.438863 13.289386 -12.095284 -3.156104 6.358642 -2.983759 0.000000 0.000000 0.000000 
10.722631 84.860786 5.142070 -0.206160 3.905509 0.769655 1.689853 -4.181561 1.035304 1.384345 -1.116932 0.335849 3.625691 8.914801 4.399609 -5.615613 5.922307 6.318884 2.992957 11.474843 0.576644 -70.533836 25.859413 -19.507423 -12.973440 0.025308 -5.390788 4.628932 -0.295380 7.232011 -7.999876 8.937905 -8.811897 49.328087 54.265064 43.162228 4.945945 -11.555300 11.574712 -11.700700 -12.708382 6.608071 -1.823683 6.987226 1.434224 0.823053 -1.556988 2.938219 3.194432 -5.974261 -0.735537 0.000000 0.000000 0.000000 -12.794910 -22.144642 7.335442 9.546659 12.962646 -12.468643 -3.148140 6.352973 -2.972906 0.000000 0.000000 0.000000 
10.645082 84.824791 5.377021 -0.094436 3.927862 1.319176 1.547696 -4.219756 0.952616 1.463174 -1.028619 0.309571 3.545806 8.944427 4.276190 -5.489489 5.771412 6.145913 2.904901 11.624627 0.490532 -70.374977 25.672956 -19.761150 -12.988958 -0.007840 -5.438097 4.778538 -0.325315 7.231730 -8.067887 9.095514 -8.847183 49.780884 53.924423 42.868248 5.002553 -11.392564 11.540659 -11.779664 -12.559050 6.648172 -1.814845 7.063432 1.129395 0.809673 -1.515602 2.933789 3.067636 -6.058837 -0.885240 0.000000 0.000000 0.000000 -13.005975 -22.175907 7.876208 9.674687 12.669467 -12.991769 -3.157628 6.383169 -2.978891 0.000000 0.000000 0.000000 
10.615065 84.755577 5.561187 0.060937 4.085594 1.745379 1.584266 -4.262954 0.939664 1.201782 -1.050725 0.302572 3.630934 8.783351 4.169907 -5.384277 5.898481 6.036210 3.024931 11.391178 0.410736 -70.526825 25.799290 -19.608620 -12.847824 -0.148599 -5.452108 4.832370 -0.459119 7.190740 -7.916509 9.055200 -8.836016 49.483242 54.233109 43.063305 4.941874 -11.625041 11.477642 -11.866404 -12.782936 6.610218 -1.938529 7.010585 0.890161 0.930677 -1.472426 3.098495 3.319055 -6.283935 -1.308246 0.000000 0.000000 0.000000 -13.298458 -22.420677 8.423081 9.831695 12.415531 -13.468185 -3.146649 6.410307 -2.953560 0.000000 0.000000 0.000000 
